<?xml version="1.0" encoding="UTF-8" standalone="no"?>
<svg
   id="Layer_1"
   viewBox="0 0 1506.4784 215.1375"
   version="1.1"
   sodipodi:docname="amadeus.svg"
   width="1506.4784"
   height="215.1375"
   inkscape:version="1.3.2 (091e20e, 2023-11-25, custom)"
   xmlns:inkscape="http://www.inkscape.org/namespaces/inkscape"
   xmlns:sodipodi="http://sodipodi.sourceforge.net/DTD/sodipodi-0.dtd"
   xmlns="http://www.w3.org/2000/svg"
   xmlns:svg="http://www.w3.org/2000/svg">
  <sodipodi:namedview
     id="namedview7"
     pagecolor="#ffffff"
     bordercolor="#000000"
     borderopacity="0.25"
     inkscape:showpageshadow="2"
     inkscape:pageopacity="0.0"
     inkscape:pagecheckerboard="0"
     inkscape:deskcolor="#d1d1d1"
     inkscape:zoom="0.49947917"
     inkscape:cx="754.78624"
     inkscape:cy="109.11366"
     inkscape:window-width="1920"
     inkscape:window-height="1009"
     inkscape:window-x="-8"
     inkscape:window-y="-8"
     inkscape:window-maximized="1"
     inkscape:current-layer="Layer_1" />
  <defs
     id="defs1">
    <style
       id="style1">.cls-1{fill:#000835;}</style>
  </defs>
  <g
     id="g7"
     transform="translate(-205.8867,-215.1374)">
    <path
       class="cls-1"
       d="m 1648.297,304.2114 c -27.093,-9.3799 -39.0689,-15.626 -39.0689,-29.6889 0,-8.8566 5.7298,-22.4029 32.8157,-22.4029 25.5224,0 52.6083,11.4596 52.6083,11.4596 v -39.0689 c -11.4597,-4.6902 -31.7758,-9.3729 -54.6951,-9.3729 -39.0691,0 -76.5746,20.8325 -76.5746,61.9884 0,41.1559 37.5056,52.6083 63.0353,60.9484 23.9591,7.8094 40.1087,15.626 40.1087,31.2523 0,13.5465 -9.38,23.9592 -40.1087,23.9592 -26.046,0 -57.3055,-10.4126 -57.3055,-10.4126 v 39.0617 c 0,0 30.2126,8.3401 59.3851,8.3401 38.5527,0 83.8678,-13.5465 83.8678,-64.0751 0,-34.379 -28.1257,-49.4888 -64.068,-61.9884 z"
       id="path1" />
    <path
       class="cls-1"
       d="m 666.3826,427.6644 v -212.527 h -58.8631 l -57.821,158.3555 -57.8218,-158.3555 h -58.863 v 212.527 h 40.1102 v -160.435 l 58.3424,160.435 h 33.859 l 60.947,-160.435 v 160.435 h 40.1102 z"
       id="path2" />
    <path
       class="cls-1"
       d="m 807.0164,215.1374 h -77.6137 v 41.1487 c 36.9857,-1.5635 47.4034,-2.0797 63.5509,-2.0797 25.5225,0 40.6323,9.3729 40.6323,34.379 v 16.1495 h -40.6323 c -68.2387,0 -89.0748,27.6093 -89.0748,63.5516 0,46.3551 34.3804,61.9884 68.76,61.9884 34.3796,0 55.2172,-16.1498 61.9869,-20.8397 v 18.2293 h 44.7987 V 282.3321 c 0,-48.9653 -26.5623,-67.1946 -72.4081,-67.1946 z m 26.5695,167.2119 c -11.4597,4.1667 -32.2993,11.4598 -52.0919,11.4598 -18.7528,0 -33.8583,-8.3331 -33.8583,-28.6491 0,-18.2365 11.4597,-27.6093 36.4615,-28.6493 l 49.4888,-2.0867 v 47.9253 z"
       id="path3" />
    <path
       class="cls-1"
       d="m 1198.2295,251.5959 h 107.3034 v -36.4585 h -153.1492 v 212.527 h 153.1492 v -36.4585 h -107.3034 v -51.5757 h 91.1537 V 303.688 h -91.1537 v -52.092 z"
       id="path4" />
    <path
       class="cls-1"
       d="m 1526.4073,427.6644 v -212.527 h -46.8785 v 161.9985 c -11.4597,5.2134 -27.6093,13.5465 -51.0521,13.5465 -29.1726,0 -38.022,-16.1498 -38.022,-50.5285 V 215.1374 h -46.8856 v 130.7461 c 0,54.6952 17.713,84.3913 73.4478,84.3913 31.2595,0 46.8857,-11.4596 63.5516,-20.8397 v 18.2293 h 45.8387 z"
       id="path5" />
    <path
       class="cls-1"
       d="m 1010.1779,215.1374 h -84.3841 v 212.527 h 84.3841 c 71.3682,0 107.3106,-32.8155 107.3106,-108.3432 0,-66.1618 -39.0689,-104.1838 -107.3106,-104.1838 z m -2.0868,175.545 H 972.6723 V 252.1196 h 35.4188 c 35.426,0 61.472,17.1893 61.472,67.2016 0,47.9183 -17.1895,71.3612 -61.472,71.3612 z"
       id="path6" />
    <path
       class="cls-1"
       d="M 309.0293,215.1374 H 231.412 v 41.1487 c 36.9843,-1.5635 47.4027,-2.0797 63.5516,-2.0797 25.5239,0 40.6309,9.3729 40.6309,34.379 v 16.1495 h -40.6309 c -68.2401,0 -89.0769,27.6093 -89.0769,63.5516 0,46.3551 34.3804,61.9884 68.7608,61.9884 34.3804,0 55.2179,-16.1498 61.989,-20.8397 v 18.2293 h 44.7988 V 282.3321 c 0,-48.9653 -26.5659,-67.1946 -72.4059,-67.1946 z m 26.5652,167.2119 c -11.4597,4.1667 -32.2964,11.4598 -52.0912,11.4598 -18.7528,0 -33.8598,-8.3331 -33.8598,-28.6491 0,-18.2365 11.4597,-27.6093 36.4636,-28.6493 l 49.4873,-2.0867 v 47.9253 z"
       id="path7" />
  </g>
</svg>
